<svg height="512" viewBox="0 0 60 60" width="512" xmlns="http://www.w3.org/2000/svg"><g id="Page-1" fill="none" fill-rule="evenodd"><g id="096---Magic-Crystal-Necklace" fill-rule="nonzero" transform="translate(-1 -1)"><path id="Shape" d="m36.71 23 3.27 23.46c.0849568.5995747-.132193 1.2023526-.58 1.61l-7.18 6.46c-.691285.6301301-1.748715.6301301-2.44 0l-7.18-6.46c-.447807-.4076474-.6649568-1.0104253-.58-1.61l1.52-10.92 1.75-12.54" fill="#dfe4f3"/><path id="Shape" d="m39.98 46.46-3.27-23.46h-3l3.27 23.46c.0849568.5995747-.132193 1.2023526-.58 1.61l-6.9 6.208.28.252c.691285.6301301 1.748715.6301301 2.44 0l7.18-6.46c.447807-.4076474.6649568-1.0104253.58-1.61z" fill="#c1d0f3"/><rect id="Rectangle-path" fill="#dfe4f3" height="5.001" rx="2" width="16" x="23" y="18"/><path id="Shape" d="m37 18h-3c1.1045695 0 2 .8954305 2 2v1c0 1.1045695-.8954305 2-2 2h3c1.1045695 0 2-.8954305 2-2v-1c0-1.1045695-.8954305-2-2-2z" fill="#c1d0f3"/><path id="Shape" d="m31 8c2.209139 0 4 1.790861 4 4v6h-8v-6c0-2.209139 1.790861-4 4-4z" fill="#9bb9ee"/><path id="Shape" d="m32.5 54.278-6.9-6.208c-.447807-.4076474-.6649568-1.0104253-.58-1.61 1.914-13.749 1.147-8.25 3.27-23.46h-.29c-1.1045695 0-2-.8954305-2-2v-1c0-1.1045695.8954305-2 2-2h2v-6c.0032957-1.6269922.9917334-3.08988001 2.5-3.7-1.2315812-.50407875-2.6334251-.36080941-3.7375754.38198256-1.1041502.74279197-1.7651788 1.98727324-1.7624246 3.31801744v6h-2c-1.1045695 0-2 .8954305-2 2v1c0 1.1045695.8954305 2 2 2h.29c-2.123 15.209-1.356 9.71-3.27 23.459-.0849568.5995747.132193 1.2023526.58 1.61l6.9 6.208c.2412281.258917.5333285.4652256.858.606.5224704.199967 1.1082164.1456423 1.585-.147.092-.056.037 0 .557-.459z" fill="#fff"/><path id="Rectangle-path" d="m20.077 30.58h7.997v1.999h-7.997z" fill="#fff" transform="matrix(.138 -.99 .99 .138 -10.526 51.064)"/><g fill="#428dff"><path id="Shape" d="m24.112 32.578c-.3572656.0016077-.6882503-.1875056-.8682755-.4961029-.1800251-.3085972-.1817405-.6897951-.0045-1 .1772406-.3102049.5065099-.5022894.8637755-.5038971h.009c.5522847 0 1 .4477153 1 1s-.4477153 1-1 1z"/><path id="Shape" d="m60.385 1.077c-.2447927-.10212961-.5201322-.10282212-.7654356-.00192517s-.4404725.29511671-.5425644.53992517c-.047.113-4.801 10.978-23.077 11.366v-.981c0-2.76142375-2.2385763-5-5-5s-5 2.23857625-5 5v.981c-18.185-.381-22.883-10.908-23.078-11.369-.21345806-.50948268-.79951732-.74945806-1.309-.536s-.74945806.79951732-.536 1.309c.211.506 5.323 12.206 24.923 12.596v2.019h-1c-1.6568542 0-3 1.3431458-3 3v1c.0045299 1.3281648.8835235 2.4945922 2.159 2.865l-.5 3.613c-.0762153.547038.305462 1.0522847.8525 1.1285s1.0522847-.305462 1.1285-.8525l.52-3.754h3.84v26c0 .5522847.4477153 1 1 1s1-.4477153 1-1v-26h3.84l3.067 22h-3.907c-.5522847 0-1 .4477153-1 1s.4477153 1 1 1h2.982l-6.431 5.786c-.3110125.2857029-.7889875.2857029-1.1 0l-6.434-5.786h2.983c.5522847 0 1-.4477153 1-1s-.4477153-1-1-1h-3.907l1.437-10.322c.0608205-.3591305-.0784399-.7229267-.3635225-.9496462-.2850826-.2267196-.670892-.2804991-1.0071091-.1403849-.336217.1401141-.5696575.451958-.6093684.8140311l-1.522 10.927c-.1297003.9259335.2072947 1.8560396.9 2.484l7.18 6.46c1.0728687.9691669 2.7051313.9691669 3.778 0l7.176-6.457c.6976264-.6291604 1.037144-1.5637706.906-2.494l-3.128-22.456c1.2764259-.3698571 2.1561154-1.5370748 2.16-2.866v-1c0-1.6568542-1.3431458-3-3-3h-1v-2.019c19.6-.39 24.712-12.09 24.923-12.6.2100147-.50865541-.0304159-1.09140912-.538-1.304zm-22.385 18.923v1c0 .5522847-.4477153 1-1 1h-12c-.5522847 0-1-.4477153-1-1v-1c0-.5522847.4477153-1 1-1h12c.5522847 0 1 .4477153 1 1zm-10-3v-5c0-1.6568542 1.3431458-3 3-3s3 1.3431458 3 3v5z"/><path id="Shape" d="m31 58c-.5522847 0-1 .4477153-1 1v1c0 .5522847.4477153 1 1 1s1-.4477153 1-1v-1c0-.5522847-.4477153-1-1-1z"/><path id="Shape" d="m17.684 46.052-3 1c-.3394023.1128959-.5927937.398285-.6647242.748664-.0719304.350379.0485281.712517.316.95.2674719.2374831.6413219.3142319.9807242.201336l3-1c.3394023-.1128959.5927937-.398285.6647242-.748664.0719304-.350379-.0485282-.712517-.3160001-.95-.2674719-.2374831-.6413218-.3142319-.9807241-.201336z"/><path id="Shape" d="m47.316 47.052-3-1c-.3394023-.1128959-.7132523-.0361471-.9807242.201336-.2674719.237483-.3879304.599621-.316.95.0719305.350379.3253219.6357681.6647242.748664l3 1c.5246705.174522 1.091478-.1093295 1.266-.634.1745219-.5246705-.1093295-1.091478-.634-1.266z"/><path id="Shape" d="m18.99 38.428c.0376969-.26257-.0304741-.5293596-.1895114-.7416593-.1590372-.2122998-.3959087-.3527131-.6584886-.3903407l-2-.286c-.5467619-.0784244-1.0535755.3012381-1.1319999.848-.0784245.5467619.301238 1.0535755.8479999 1.132l2 .286c.26257.0376969.5293596-.0304741.7416593-.1895114.2122998-.1590372.3527131-.3959087.3903407-.6584886z"/><path id="Shape" d="m46.99 37.858c-.0376276-.2625799-.1780409-.4994514-.3903407-.6584886-.2122997-.1590373-.4790893-.2272083-.7416593-.1895114l-2 .286c-.5467619.0784244-.9264244.5852381-.848 1.132s.5852381.9264244 1.132.848l2-.286c.2625799-.0376276.4994514-.1780409.6584886-.3903407.1590373-.2122997.2272083-.4790893.1895114-.7416593z"/><circle id="Oval" cx="17" cy="43" r="1"/><circle id="Oval" cx="20" cy="53" r="1"/><circle id="Oval" cx="25" cy="57" r="1"/><circle id="Oval" cx="45" cy="43" r="1"/><circle id="Oval" cx="42" cy="53" r="1"/><circle id="Oval" cx="37" cy="57" r="1"/></g></g></g></svg>